<svg xmlns="http://www.w3.org/2000/svg" width="615.262" height="223.73" viewBox="0 0 16267.77 5915.5" shape-rendering="geometricPrecision" text-rendering="geometricPrecision" image-rendering="optimizeQuality" fill-rule="evenodd" clip-rule="evenodd"><path d="M2952.95 2361.88c31.2-126.86-304.13-182.34-389.94-176.58-31.17 2.1-140.36 103.02-218.34 201.83-38.99-67.55-382.13-223.88-545.92-212.88-530.31 35.61-1263.38 1285.82-1263.38 1480.78 85.8 368.58 389.94 706.89 499.13 699.55 140.36-9.42 881.24-1150.99 935.83-1154.66 7.78-.52 7.78 7.28 7.78 7.28v7.8C1447.8 4467.19 1323.03 5068.27 441.79 5260.02c-109.2 22.93-179.37-11.33-187.17-73.2-23.39-76.43 31.2-197.07 85.77-263.13-38.97 2.62-70.17 4.72-101.37 22.41-148.17 41.14-265.16 220.57-233.96 358.85C44.05 5473.9 348.2 5999.4 839.52 5904c1208.78-229.34 1317.97-2560.68 2113.41-3542.14zm-685.46 2622.39c-505.37 39.35 725.32 938.74 914.05 907.75 627.81-103.13 10088.86-1572.55 12263.89-1776.73 412.6-38.75 353.12-186.33 45.49-162.34L2267.49 4984.27zm979.16 244.82c-169.05 28.86-724.73-8.17-658.6-20.86 1362.22-261.55 8591.33-770.43 8379.02-757.26-70.68 79.18-6992.16 653.75-7720.41 778.11zM7453 4975.16c-1096.43 98.8-3036.21 330.5-3647.77 372.09-86.9 5.89-507.47 23.03-445.62-5.97 922.95-160.96 4195.94-421.52 4093.39-366.12zm8276.64-3291.94c-280.74 276.21-1707.89 1495.06-1707.89 1674.43 0 70.17 202.77 345.12 358.74 334.64 23.4-1.57 163.77-221.56 179.37-222.61 39-2.62 397.74 183.86 803.24 156.62 374.34-25.14 733.1-657.53 647.3-675.17-124.77 86.37-241.77 226.81-499.1 244.08-210.57 14.14-514.73-74.6-623.91-121.87 0 7.79 1286.78-1373.19 1364.77-1456.43 7.8-16.12 15.6-32.22 15.6-63.42 0-124.8-101.39-320.75-194.97-314.47 7.8-.53 15.6-1.05 15.6-1.05-38.99 2.62-1107.41 74.37-1115.2 74.89-67.25 28.54-371.07 454.48-592.8 795.64-3.25-1.05-5.92-.78-7.73 1.16-335.33 373.46-951.43 1147.93-1045.01 1193.19-7.79.52-7.79-7.28-7.79-15.08 0-116.97 319.73-1206.85 561.5-1550.63 7.8-140.91-327.54-297.76-366.53-240.55-85.79 138.34-163.77 268.37-233.96 397.85-397.74 603.81-889.05 1057.94-967.04 1094.36-7.79.52-7.79-7.28-7.79-15.08 0-116.97 272.96-899.57 545.9-1354.61 31.2-119.09-350.93-241.6-389.94-184.38-397.71 596.02-748.67 1220.06-803.24 1598.06 124.78 389.36 522.51 666.81 600.5 583.57 155.97-158.64 374.34-461.88 600.48-820.19-77.98 192.4-116.97 350.99-140.37 461.76 124.78 389.36 522.51 666.78 600.5 583.54 243.51-245.94 822.25-1110.35 1054.97-1484.07 276.18-267.1 699.98-723.8 738.73-726.41l616.08 52.2zm-1546.49 746.55l-1.03 1.91c-57.8 79.93-597.67 797.37-862.26 965.3-7.8 23.92 148.17-56.74 179.37-90.04 225.22-232.59 496.83-607.5 683.93-877.17zm743.25-934.38c-227.92 353.7-388.54 556.09-498.12 667.89l-4.03-7.07c126.63-166.55 541.6-722.63 502.15-660.82zm1068.4-173.12c-460.11 77.7-717.47 87.18-857.84 73.21-23.4 9.36 943.64-94.58 857.84-73.21zm-1551.94 1679.56c-54.57 27.04 998.23-979.5 1286.78-1186.04 23.39-9.35-62.38 105.58-101.37 131.6-179.37 152.42-865.64 767.81-1185.4 1054.44zm577.1-452.09c-31.2 9.89 413.34-409.89 600.5-555.03 31.2-2.09 15.6 6.76-7.79 39.5l-592.71 515.53zm592.71 724.47c-280.74 18.86-249.57 32.36-592.71-14.79-54.57-4.14-202.76-103.36-187.16-112.2 327.56 157.37 850.06 122.28 779.87 126.99zm-2285.02-1148.92c-280.76 595.96-335.33 810.17-350.93 850.21-38.99 72.81-155.97 283.44-148.19 251.72 171.58-596.42 545.92-1198.67 499.12-1101.93zm-873.46-534.05c-280.74 533.56-499.11 883.56-522.51 885.14-46.78 3.14 561.5-973.55 522.51-885.14zm-155.97 423.81c-187.16 433.68-265.14 509.11-358.74 624.57-7.79 16.13 389.94-704.66 358.74-624.57zm974.84 28.1c-319.74 403.62-545.9 715.14-795.47 973.67-38.97 41.61-210.57 131.13-202.76 107.21 319.76-208.64 1045.03-1138.61 998.23-1080.88zm-2061.03 1238.02c-85.77 5.77-241.75 273.6-210.57 396.28 31.2 130.47 109.2 226.63 179.39 221.92 70.17-4.72 421.11-246.65 366.54-430.15-46.8-184.02-257.37-193.29-335.36-188.05zm-60.67 408.34c8.07-75.66 107.58-214.29 168.72-294.07-86.4 63.65-183.26 204.17-168.72 294.07zm-56.07 63.71c.92-158.82 62.15-296.74 183.7-413.71-177.9 93.81-239.12 231.71-183.7 413.71zM8740.59 928.19c-187.17 12.57 249.56 349.78 319.73 345.07 506.94-57.44 1052.83-109.7 1583.14-145.31l-374.34 734.81c-61.46 127.03-213.67 443.6-355.15 778.96-343.9 399.04-826.3 997.54-908.23 1037.19-7.79.53-7.79-7.28-7.79-15.07-7.8-202.24 7.79-507.44 405.53-1173.64 0-7.79 7.79-8.32 7.79-16.12 0-93.58-218.36-468.84-272.96-449.58-155.96 2.68-350.93-46.63-350.93-70.02 0-39 70.19-184.08 155.96-267.82 124.78-86.37-226.17-327.97-350.93-257.2-85.79 52.56-233.97 273.07-335.34 545.03 0 116.99 54.58 238.1 93.58 321.27-78.97 135.05-247.72 382.23-435.39 662.97-311.28 366.87-657.42 785.34-726.59 818.81-7.8.52-7.8-7.28-7.8-15.08 0-116.97 62.38-651.46 335.34-1106.53 0-7.79 7.79-8.32 7.79-16.12 0-93.58-366.53-240.55-358.74-256.65 7.8-16.13 85.78-255.33 15.6-336.41-38.99-67.55-350.95-202.57-514.72-191.58-530.31 35.62-1107.41 1267.55-1107.41 1493.72 85.79 368.58 405.53 760.43 499.13 699.55 163.77-112.37 647.27-940.31 725.27-1023.54 7.8-8.32 7.8 7.28 7.8 7.28-39 135.19-210.57 536.65-210.57 700.41 124.77 389.36 522.51 666.81 600.49 583.57 198.22-200.22 610.27-797.24 880.81-1211.75 102.24-122.2 283.85-349.58 538.53-685.04 132.57 37.89 272.94 67.44 311.94 64.82-109.17 124.33-530.3 1010.45-514.7 1149.78 124.78 389.36 522.51 666.81 600.5 583.57 148.72-150.22 422.46-531.12 666.1-890.04-23.44 86.84-38.58 163.37-42.22 224.24 124.8 389.36 522.52 666.81 600.5 583.57 272.96-275.7 967.03-1328.32 1123.01-1596.16 23.39-48.38-54.6-152.31-70.2-135.66-335.33 373.46-951.41 1147.9-1045.01 1193.18-7.79.53-7.79-7.28-7.79-15.07 85.79-707.64 530.3-1759.12 889.04-2485.09 280.77-18.85 1544.14-150.49 1895.08-158.46 226.17-15.19 62.4-50.99-194.97-57.08l-1606.52 29.89c109.18-210.1 202.77-380.15 280.74-502.36 93.6-146.68-77.97-447.1-249.54-404.38-15.6 8.85-241.77 445.17-475.73 897.59-795.47-16.75-1466.14-10.71-2019.85 26.47zM9826.9 2854.7l-2.93 7.42c-183.95 262.44-431.12 598.02-638.86 812.53-31.2 33.3-187.16 113.94-179.37 90.02 232.4-147.51 677.19-718.93 821.15-909.97zm387.63-559.35c-19.28 49.5-80.28 155.42-122.19 221.61-5.34-7.44-10.84-14.07-16.04-19.38 126.47-349.42 411.26-937.62 621.76-1365.51l31.18-2.09c-202.77 458.15-405.51 885.08-514.71 1165.37zM11017.8 494.5l-179.37 409.78-31.2 2.09c132.57-266.24 226.17-444.12 210.57-411.87zm-631.7 1594.36c-15.6 47.85-109.18 210.1-101.37 186.17 77.97-239.2 335.33-778.98 499.1-1140.91l15.6-1.05c-163.77 361.93-335.33 771.19-413.33 955.79zm600.5-1381.7l-93.58 201.25-7.79.53 101.37-201.78zm116.97 2004.2c-187.17 269.93-460.11 647-686.27 880.55-31.2 33.3-187.17 113.94-179.37 90.02 288.53-183.15 904.64-1019.97 865.64-970.57zm272.96-1726.22c-639.51 11.74-1934.08 12.89-2277.21 43.73-62.4 11.99-265.14-13.39-241.77-22.76 506.93-80.82 2596.95-34.01 2518.98-20.97zm-1037.24 54.05c-405.51 11.63-811.05 38.87-1037.22 46.26-31.2-5.71-187.16-3.03-163.77-12.4 343.14-38.64 1239.98-52.07 1200.98-33.86zM7724.7 3293.11c7.23.16 14.65.12 22.22-.16-137.64 184.47-285.76 369.9-417.9 506.36-31.19 33.29-187.16 113.93-179.36 90.02 149.34-94.8 386.44-364.7 575.03-596.21zm1312.24-832.9c-280.76 595.96-335.36 810.19-350.95 850.23-38.98 72.82-155.97 283.44-148.18 251.72 210.57-622.45 545.91-1198.67 499.13-1101.95zm-878.29 215.52c79.45-130.82 158.04-228.28 230.99-359.23l31.2 21.31c-6.17.42-65.78 111.31-190.27 272.06-5.41-3.23-9.84-3.9-12.49-1.07-19.01 21.16-38.88 43.58-59.43 66.93zm464.96-1185.98c-218.37 443.58-155.97 330.22-280.76 478.96-23.4 17.18 327.56-575.7 280.76-478.96zM6221.63 3335.57c-7.8.53-31.2-21.3-31.2-68.09 0-249.57 522.51-1095.71 795.47-1114.03 38.97-2.62 0 171.57 0 179.37 0 23.4-163.8 416.54-764.27 1002.76zm686.27-654.39c-304.14 418.17-241.77 328.18-475.71 585.65-39 41.62-210.57 146.71-202.77 122.79 304.14-223.17 725.28-766.18 678.48-708.44zm-1091.81 213.69c109.17-202.3 405.53-744.7 811.07-904.52-358.77 195.67-678.5 739.64-811.07 904.52zm116.97-7.85c140.39-305.77 452.33-677.65 701.89-811.41-272.96 174.32-569.3 591.94-701.89 811.41zm1185.4-368.15c-257.37 602.19-288.56 814.85-304.14 854.87-38.99 72.82-155.99 306.84-148.19 275.11 187.16-644.26 499.12-1242.32 452.33-1129.98zm-1494.63-865.16c-85.77 5.76-241.74 273.59-210.57 396.27 31.2 130.47 109.2 226.64 179.4 221.92 70.17-4.72 421.1-246.64 366.53-430.15-46.8-184.02-257.37-193.29-335.36-188.04zm-102.56 335.92c41.89-65.68 191.14-146.65 280.34-191.48-103.35 18.28-251.22 102.23-280.34 191.48zm-77.45 32.42c74.25-145.34 190.41-243.44 348.49-294.3-195.56 3.43-311.73 101.53-348.49 294.3zm35.87 911.02c23.4-48.38-54.57-152.31-70.17-135.66-335.33 373.46-951.43 1147.9-1045.03 1193.18-7.77.52-7.77-7.28-7.77-15.07 124.77-991.02 834.44-2395.62 1169.78-2932.88 93.6-146.65-77.97-447.07-249.54-404.35-31.2 9.89-842.27 1546.1-873.47 1618.37-38.99-67.55-382.13-223.88-545.9-212.89-530.31 35.62-1263.38 1285.83-1263.38 1480.79 85.8 368.57 389.94 706.88 499.11 699.55 140.39-9.43 881.26-1150.99 935.83-1154.66 7.8-.53 7.8 7.28 7.8 7.28-39 135.19-280.74 705.13-280.74 868.9 124.77 389.36 522.51 666.81 600.5 583.56 272.93-275.69 967.01-1328.31 1122.98-1596.15zm-2222.61 578.19c-7.8.53-15.58-6.76-15.58-22.35 0-132.57 608.28-1007.89 912.44-1028.31 7.8-.52 54.57 11.94 54.57 19.74 0 23.4-163.77 166.97-951.43 1030.93zm1957.47-373.22c-187.16 269.93-460.13 647-686.27 880.55-31.2 33.3-187.16 113.94-179.37 90.02 288.54-183.15 904.65-1019.99 865.64-970.57zm0-2214.82c-319.73 723.35-655.09 1354.17-811.07 1762.37-31.2 80.08-171.56 307.86-163.77 276.14 210.57-622.42 1021.64-2135.23 974.84-2038.52zm-101.39 357.75c-210.55 474.27-428.91 933.45-538.1 1198.14-15.6 47.85-109.18 210.1-101.37 186.18 140.36-407.16 670.67-1448.79 639.48-1384.32zm-928.04 1317.89c-319.74 403.61-545.91 715.16-795.45 973.66-38.99 41.62-210.57 131.14-202.76 107.22 319.73-208.64 1045.01-1138.59 998.21-1080.88zm-1302.38 485.2c194.97-301.64 319.76-497.18 639.5-760.42 62.4-50.99 233.97-148.28 218.37-116.03-335.34 209.69-608.31 586.75-857.87 876.45zm54.59 97.72c148.17-298.51 467.93-670.92 717.47-796.85-272.93 166.5-577.1 584.66-717.47 796.85zm-1739.08 459.93c-7.8.53-31.2-36.89-31.2-52.49 0-132.57 623.9-1016.74 982.63-1040.83 7.8-.52 0 54.6 0 62.4 0 23.4-163.79 166.97-951.43 1030.93zm928.04-904.59c-319.76 403.61-545.91 715.15-795.47 973.66-38.99 41.62-210.57 131.13-202.76 107.22 319.73-208.65 1045.01-1138.6 998.23-1080.88zm-1255.6 482.05c194.97-301.64 319.75-497.18 639.5-760.41 62.4-51 233.96-148.29 218.36-116.04-335.33 209.69-608.3 586.76-857.86 876.45zm54.59 97.73c148.17-298.52 467.93-670.92 717.47-796.86-272.94 166.5-577.1 584.66-717.47 796.86zm639.5 1275.02c350.94-756.64 491.31-1296.39 803.24-1816.45 39-72.79 155.99-283.42 148.2-251.72-311.97 629.25-982.64 2148.23-951.44 2068.16zm389.94-720.28c194.97-387.43 304.14-722.3 452.31-989.59 15.6-24.45 93.6-177.88 93.6-154.49-155.97 361.41-538.1 1182.55-545.91 1144.07zm-662.89 1073.95c-265.15 236.17-343.14 280.38-694.08 413.15-78 20.84-226.17 38.58-210.57 14.14 343.14-69.84 631.7-221.79 904.65-427.29z" fill="#ffffff"/></svg>
